<?xml version="1.0" encoding="utf-8"?>
<svg id="_图层_3" data-name="图层_3" xmlns="http://www.w3.org/2000/svg" version="1.1" viewBox="0 0 587 472">
  <defs>
    <style>
      .st0 {
        fill: #373839;
      }

      .st1 {
        fill: #45b059;
      }

      .st2 {
        fill: #fefefd;
      }
    </style>
  </defs>
  <rect class="st0" y="0" width="587" height="472"/>
  <polygon class="st2" points="164.84 212.16 169.02 221.52 111.02 236.01 108 225.01 164.84 212.16"/>
  <path class="st1" d="M393.82,85.17v5.67c-13.85,5.3,4.13,29.37-20.83,26.17l.06-6.95,6.29-2.29c1.43-4.94.13-10.06.87-15.05.3-2,3.6-2.73,3.81-5.21.02-.28-3.27-1.51-3.74-4.27-1.25-7.32,3.06-14.66-6.84-16.18v-5.13s12.58,2.55,12.58,2.55c5.19,6.41-2.65,18.28,7.81,20.68Z"/>
  <polygon class="st1" points="215.42 105.62 217 106.49 210.02 111.56 187.97 87.5 211.67 64.16 216.53 70.02 199.08 88.35 215.42 105.62"/>
  <path class="st2" d="M419,157l-10.99,3-1.49-132.98c-33.92,27.4-76.65,50.24-108.99,79.02-25.67,22.85-35,45.82-32.54,80.97h53.01v-24.51c0-16.39-11.64-34.87-21.92-46.85l9.32-6.73c22,23.27,28.24,53.75,23.07,85.05l-28.42,33.41c8.19,7.99,26.87,19.55,38.43,18.68,3.96-.3,53.72-26.51,53.52-29.57l-46.57-11.41-.45-22.61,126.99-32.42,2.04,9.94-103,27.01h36c.79,0,1.84-9.57,11.99-7v8h57.01v10.01s-59.99,0-59.99,0l-3.05,11.44,60.45,15.44-1.51,10.04-66.26-15.7c-32.96,27.43-76.11,44.71-115.21,61.69-7.39.3-91.2-42.16-100.73-49.11-11.55-8.44-21.09-19.13-23.71-33.8l-58.35.86-1.64-10.86h56.5l2.01-8.02,10.38,2.12,1.11,5.89h36l-103-28.01,3.01-10.99,125.99,33.5.76,22.27-47.76,12.25c6.93,7.04,43.69,29.34,51.55,29.93,10.07.75,28.94-10.12,37.47-15.47l6.52,7.53-27.53,15.49,29.78,14.33,34.21-13.84-13.51-6.96c-11.27-6.93-48.8-41.82-54.48-52.52-4.31-8.13-1.61-34.77.47-44.53,7.58-35.58,36.57-55.49,63.53-75.96h-53.99s21.98,17.01,21.98,17.01l-9.26,7.85L176.01,27.01v132.99s-10.95-2.05-10.95-2.05l2.37-147h7.15s77.88,55.61,77.88,55.61c25.86-6.05,52.76-5.99,78.64-.06,10.9-1.53,63.25-50.6,78.16-55.72,3.9-1.34,8.66-1.52,9.74,3.24v143Z"/>
  <path class="st1" d="M419,157V14v143Z"/>
  <polygon class="st0" points="309.99 198.01 291.46 218.05 274.01 199.49 309.99 198.01"/>
  <polygon class="st0" points="210.5 199 214 199.99 183.49 207.01 178.99 198.51 180.5 199 210.5 199"/>
  <path class="st0" d="M401.5,199c.42.03,2.71-2.77,2.48.48l-4.58,7.35-29.41-7.83c10.36.59,21.18-.81,31.5,0Z"/>
  <g>
    <path class="st2" d="M16.61,310.71h50.29v5.54H23.05v36.76h37.04v5.54H23.05v44.41h-6.44v-92.26Z"/>
    <path class="st2" d="M75.49,369.48c0-21.92,14.25-35.42,29.32-35.42,15.93,0,25.73,11.34,25.73,31.11,0,1.68-.06,3.36-.35,5.04h-48.34c.22,16.97,10.16,29.09,25.31,29.09,7.28,0,13.02-2.41,18.06-5.96l2.55,4.7c-5.29,3.3-11.34,6.61-21.2,6.61-17.16,0-31.08-13.19-31.08-35.17ZM124.72,365.12c0-17.16-7.78-25.7-19.85-25.7-11.37,0-21.64,9.63-23.04,25.7h42.9Z"/>
    <path class="st2" d="M148.77,393.96v-91.7h6.19v92.54c0,3,1.23,4.4,2.91,4.4.59,0,1.15,0,2.52-.28l1.04,5.04c-1.26.36-2.41.7-4.45.7-5.4,0-8.2-3.33-8.2-10.7Z"/>
    <path class="st2" d="M179.54,314.02c0-3.47,2.58-5.49,5.63-5.49s5.63,2.02,5.63,5.49c0,3.22-2.58,5.49-5.63,5.49s-5.63-2.27-5.63-5.49ZM181.95,335.75h6.19v67.23h-6.19v-67.23Z"/>
    <path class="st2" d="M205.63,395.36l3.58-4.51c5.68,4.76,11.8,8.51,21.36,8.51,10.58,0,16.07-6.19,16.07-13.27,0-8.43-8.71-12.12-16.46-14.92-10.14-3.6-21.42-7.73-21.42-19.21,0-9.69,7.67-17.89,21.67-17.89,7.2,0,14.31,2.98,19.21,6.97l-3.33,4.45c-4.54-3.39-9.31-6.13-16.04-6.13-10.49,0-15.23,6.03-15.23,12.24,0,7.67,7.92,10.58,15.93,13.61,10.42,3.96,21.95,7.39,21.95,20.5,0,10.14-8.09,18.96-22.65,18.96-9.97,0-18.62-4.17-24.64-9.3Z"/>
  </g>
  <g>
    <path class="st2" d="M291.89,356.77c0-27.82,17.42-44.36,38.95-44.36,10.66,0,19.14,5.1,24.49,10.76l-8.06,9.72c-4.37-4.37-9.46-7.38-16.12-7.38-13.83,0-23.76,11.7-23.76,30.79s9.15,31.15,23.4,31.15c7.54,0,13.37-3.48,18.15-8.74l8.06,9.46c-6.89,8.01-15.76,12.38-26.78,12.38-21.37,0-38.33-15.65-38.33-43.79Z"/>
    <path class="st2" d="M365.73,367.12c0-21.27,14.46-33.54,30.37-33.54s30.37,12.27,30.37,33.54-14.46,33.44-30.37,33.44-30.37-12.27-30.37-33.44ZM411.08,367.12c0-12.79-5.62-21.32-14.98-21.32s-14.98,8.53-14.98,21.32,5.62,21.22,14.98,21.22,14.98-8.42,14.98-21.22Z"/>
    <path class="st2" d="M437.41,367.12c0-20.8,13.05-33.54,27.04-33.54,7.23,0,11.8,2.7,16.74,7.02l-.57-10.3v-23.14h14.98v91.83h-12.27l-1.14-6.92h-.42c-4.73,4.73-11.28,8.48-18.15,8.48-15.91,0-26.21-12.38-26.21-33.44ZM480.62,381v-29.74c-4.37-3.9-8.68-5.3-13-5.3-8.11,0-14.82,7.7-14.82,21.01s5.3,21.22,14.51,21.22c4.94,0,9.1-2.18,13.31-7.18Z"/>
    <path class="st2" d="M510.42,367.12c0-20.75,14.41-33.54,29.43-33.54,17.26,0,26.37,12.48,26.37,30.32,0,2.86-.31,5.72-.65,7.28h-40.54c1.25,11.34,8.53,17.79,18.82,17.79,5.46,0,10.14-1.72,14.82-4.63l5.1,9.31c-6.08,4.11-13.78,6.92-21.89,6.92-17.63,0-31.46-12.38-31.46-33.44ZM553.27,360.98c0-9.83-4.37-15.81-13.1-15.81-7.44,0-13.99,5.56-15.29,15.81h28.39Z"/>
  </g>
</svg>