<?xml version="1.0" encoding="UTF-8"?>
<svg id="_图层_3" data-name="图层_3" xmlns="http://www.w3.org/2000/svg" version="1.1" viewBox="0 0 587 472">
  <!-- Generator: Adobe Illustrator 29.8.6, SVG Export Plug-In . SVG Version: 2.1.1 Build 1)  -->
  <defs>
    <style>
      .st0 {
        fill: #373839;
      }

      .st1 {
        fill: #45b059;
      }

      .st2 {
        fill: #fefefd;
      }
    </style>
  </defs>
  <rect class="st0" y="0" width="587" height="472"/>
  <polygon class="st2" points="164.84 212.16 169.02 221.52 111.02 236.01 108 225.01 164.84 212.16"/>
  <path class="st1" d="M393.82,85.17v5.67c-13.85,5.3,4.13,29.37-20.83,26.17l.06-6.95,6.29-2.29c1.43-4.94.13-10.06.87-15.05.3-2,3.6-2.73,3.81-5.21.02-.28-3.27-1.51-3.74-4.27-1.25-7.32,3.06-14.66-6.84-16.18v-5.13s12.58,2.55,12.58,2.55c5.19,6.41-2.65,18.28,7.81,20.68Z"/>
  <polygon class="st1" points="215.42 105.62 217 106.49 210.02 111.56 187.97 87.5 211.67 64.16 216.53 70.02 199.08 88.35 215.42 105.62"/>
  <path class="st2" d="M419,157l-10.99,3-1.49-132.98c-33.92,27.4-76.65,50.24-108.99,79.02-25.67,22.85-35,45.82-32.54,80.97h53.01v-24.51c0-16.39-11.64-34.87-21.92-46.85l9.32-6.73c22,23.27,28.24,53.75,23.07,85.05l-28.42,33.41c8.19,7.99,26.87,19.55,38.43,18.68,3.96-.3,53.72-26.51,53.52-29.57l-46.57-11.41-.45-22.61,126.99-32.42,2.04,9.94-103,27.01h36c.79,0,1.84-9.57,11.99-7v8h57.01v10.01s-59.99,0-59.99,0l-3.05,11.44,60.45,15.44-1.51,10.04-66.26-15.7c-32.96,27.43-76.11,44.71-115.21,61.69-7.39.3-91.2-42.16-100.73-49.11-11.55-8.44-21.09-19.13-23.71-33.8l-58.35.86-1.64-10.86h56.5l2.01-8.02,10.38,2.12,1.11,5.89h36l-103-28.01,3.01-10.99,125.99,33.5.76,22.27-47.76,12.25c6.93,7.04,43.69,29.34,51.55,29.93,10.07.75,28.94-10.12,37.47-15.47l6.52,7.53-27.53,15.49,29.78,14.33,34.21-13.84-13.51-6.96c-11.27-6.93-48.8-41.82-54.48-52.52-4.31-8.13-1.61-34.77.47-44.53,7.58-35.58,36.57-55.49,63.53-75.96h-53.99s21.98,17.01,21.98,17.01l-9.26,7.85L176.01,27.01v132.99s-10.95-2.05-10.95-2.05l2.37-147h7.15s77.88,55.61,77.88,55.61c25.86-6.05,52.76-5.99,78.64-.06,10.9-1.53,63.25-50.6,78.16-55.72,3.9-1.34,8.66-1.52,9.74,3.24v143Z"/>
  <path class="st1" d="M419,157V14v143Z"/>
  <polygon class="st0" points="309.99 198.01 291.46 218.05 274.01 199.49 309.99 198.01"/>
  <polygon class="st0" points="210.5 199 214 199.99 183.49 207.01 178.99 198.51 180.5 199 210.5 199"/>
  <path class="st0" d="M401.5,199c.42.03,2.71-2.77,2.48.48l-4.58,7.35-29.41-7.83c10.36.59,21.18-.81,31.5,0Z"/>
  <g>
    <path class="st2" d="M16.61,310.71h50.29v5.54H23.05v36.76h37.04v5.54H23.05v44.41h-6.44v-92.26Z"/>
    <path class="st2" d="M75.49,369.48c0-21.92,14.25-35.42,29.32-35.42,15.93,0,25.73,11.34,25.73,31.11,0,1.68-.06,3.36-.35,5.04h-48.34c.22,16.97,10.16,29.09,25.31,29.09,7.28,0,13.02-2.41,18.06-5.96l2.55,4.7c-5.29,3.3-11.34,6.61-21.2,6.61-17.16,0-31.08-13.19-31.08-35.17ZM124.72,365.12c0-17.16-7.78-25.7-19.85-25.7-11.37,0-21.64,9.63-23.04,25.7h42.9Z"/>
    <path class="st2" d="M148.77,393.96v-91.7h6.19v92.54c0,3,1.23,4.4,2.91,4.4.59,0,1.15,0,2.52-.28l1.04,5.04c-1.26.36-2.41.7-4.45.7-5.4,0-8.2-3.33-8.2-10.7Z"/>
    <path class="st2" d="M179.54,314.02c0-3.47,2.58-5.49,5.63-5.49s5.63,2.02,5.63,5.49c0,3.22-2.58,5.49-5.63,5.49s-5.63-2.27-5.63-5.49ZM181.95,335.75h6.19v67.23h-6.19v-67.23Z"/>
    <path class="st2" d="M205.63,395.36l3.58-4.51c5.68,4.76,11.8,8.51,21.36,8.51,10.58,0,16.07-6.19,16.07-13.27,0-8.43-8.71-12.12-16.46-14.92-10.14-3.6-21.42-7.73-21.42-19.21,0-9.69,7.67-17.89,21.67-17.89,7.2,0,14.31,2.98,19.21,6.97l-3.33,4.45c-4.54-3.39-9.31-6.13-16.04-6.13-10.49,0-15.23,6.03-15.23,12.24,0,7.67,7.92,10.58,15.93,13.61,10.42,3.96,21.95,7.39,21.95,20.5,0,10.14-8.09,18.96-22.65,18.96-9.97,0-18.62-4.17-24.64-9.3Z"/>
  </g>
  <g>
    <path class="st2" d="M291.89,356.77c0-27.82,17.42-44.36,38.95-44.36,10.66,0,19.14,5.1,24.49,10.76l-8.06,9.72c-4.37-4.37-9.46-7.38-16.12-7.38-13.83,0-23.76,11.7-23.76,30.79s9.15,31.15,23.4,31.15c7.54,0,13.37-3.48,18.15-8.74l8.06,9.46c-6.89,8.01-15.76,12.38-26.78,12.38-21.37,0-38.33-15.65-38.33-43.79Z"/>
    <path class="st2" d="M365.73,367.12c0-21.27,14.46-33.54,30.37-33.54s30.37,12.27,30.37,33.54-14.46,33.44-30.37,33.44-30.37-12.27-30.37-33.44ZM411.08,367.12c0-12.79-5.62-21.32-14.98-21.32s-14.98,8.53-14.98,21.32,5.62,21.22,14.98,21.22,14.98-8.42,14.98-21.22Z"/>
    <path class="st2" d="M437.41,367.12c0-20.8,13.05-33.54,27.04-33.54,7.23,0,11.8,2.7,16.74,7.02l-.57-10.3v-23.14h14.98v91.83h-12.27l-1.14-6.92h-.42c-4.73,4.73-11.28,8.48-18.15,8.48-15.91,0-26.21-12.38-26.21-33.44ZM480.62,381v-29.74c-4.37-3.9-8.68-5.3-13-5.3-8.11,0-14.82,7.7-14.82,21.01s5.3,21.22,14.51,21.22c4.94,0,9.1-2.18,13.31-7.18Z"/>
    <path class="st2" d="M510.42,367.12c0-20.75,14.41-33.54,29.43-33.54,17.26,0,26.37,12.48,26.37,30.32,0,2.86-.31,5.72-.65,7.28h-40.54c1.25,11.34,8.53,17.79,18.82,17.79,5.46,0,10.14-1.72,14.82-4.63l5.1,9.31c-6.08,4.11-13.78,6.92-21.89,6.92-17.63,0-31.46-12.38-31.46-33.44ZM553.27,360.98c0-9.83-4.37-15.81-13.1-15.81-7.44,0-13.99,5.56-15.29,15.81h28.39Z"/>
  </g>
  <g>
    <path class="st1" d="M34.68,427.59h5.01l2.39,13.88c.45,2.92.92,5.85,1.36,8.77h.17c.57-2.92,1.18-5.87,1.78-8.77l3.38-13.88h4.23l3.38,13.88c.6,2.85,1.21,5.82,1.81,8.77h.17c.45-2.95.88-5.9,1.33-8.77l2.39-13.88h4.67l-5.28,27.47h-6.03l-3.41-14.47c-.45-2.13-.86-4.23-1.21-6.32h-.17c-.38,2.08-.79,4.18-1.24,6.32l-3.33,14.47h-5.93l-5.46-27.47Z"/>
    <path class="st1" d="M70.29,444.76c0-6.71,4.65-10.84,9.51-10.84,5.58,0,8.52,4.03,8.52,9.8,0,.92-.1,1.85-.21,2.35h-13.1c.4,3.66,2.76,5.75,6.08,5.75,1.76,0,3.28-.55,4.79-1.5l1.65,3.01c-1.97,1.33-4.45,2.23-7.07,2.23-5.7,0-10.17-4-10.17-10.8ZM84.13,442.78c0-3.18-1.41-5.11-4.23-5.11-2.4,0-4.52,1.8-4.94,5.11h9.17Z"/>
    <path class="st1" d="M98.36,452.9h-.13l-.42,2.17h-3.81v-29.67h4.84v7.68l-.13,3.43c1.72-1.51,3.84-2.57,5.96-2.57,5.16,0,8.14,4.13,8.14,10.48,0,7.08-4.22,11.17-8.8,11.17-1.88,0-3.9-.96-5.63-2.67ZM107.82,444.48c0-4.12-1.34-6.55-4.49-6.55-1.5,0-2.94.76-4.5,2.32v9.61c1.45,1.26,2.94,1.71,4.13,1.71,2.76,0,4.86-2.42,4.86-7.09Z"/>
    <path class="st1" d="M135.45,447.84c0-8.57,12.69-9.26,12.69-14.89,0-1.45-.66-2.57-2.23-2.57-1.72,0-2.93,1.43-2.93,3.53,0,4.74,5.79,11.12,11.23,14.76,2.23,1.5,4.39,2.55,6.18,2.95l-1.21,3.95c-2.47-.57-5.2-1.86-7.87-3.77-6.46-4.61-12.39-12.2-12.39-17.85,0-3.78,2.72-6.86,6.92-6.86,3.76,0,6.08,2.35,6.08,5.83,0,7.19-11.85,9.11-11.85,14.64,0,2.55,2.02,4.27,4.74,4.27,2.1,0,4.2-1.21,6-3.01,2.2-2.29,3.9-5.28,4.89-8.92h4.44c-1.23,4.12-3.14,7.89-5.98,11.14-2.45,2.71-5.7,4.54-9.93,4.54-5.49,0-8.77-3.41-8.77-7.73Z"/>
    <path class="st1" d="M182.66,451.54l2.84-3.34c1.97,1.87,4.6,3.13,7.16,3.13,3.09,0,4.79-1.4,4.79-3.54,0-2.26-1.77-2.98-4.27-4.04l-3.76-1.63c-2.71-1.13-5.55-3.27-5.55-7.28,0-4.38,3.86-7.75,9.23-7.75,3.21,0,6.32,1.33,8.47,3.5l-2.5,3.09c-1.75-1.49-3.61-2.36-5.96-2.36-2.6,0-4.3,1.22-4.3,3.23,0,2.16,2.09,2.96,4.37,3.89l3.71,1.55c3.27,1.36,5.55,3.43,5.55,7.41,0,4.45-3.7,8.17-9.86,8.17-3.71,0-7.29-1.46-9.9-4.02Z"/>
    <path class="st1" d="M206.95,449.52c0-4.42,3.66-6.72,12.13-7.63-.07-2.22-.96-4.07-3.75-4.07-2.05,0-3.98.92-5.8,2.03l-1.78-3.23c2.27-1.43,5.19-2.71,8.47-2.71,5.16,0,7.7,3.18,7.7,8.92v12.22h-3.96l-.37-2.29h-.13c-1.85,1.58-3.97,2.79-6.4,2.79-3.61,0-6.1-2.45-6.1-6.05ZM219.09,449.54v-4.64c-5.6.71-7.46,2.17-7.46,4.25,0,1.82,1.24,2.62,2.97,2.62s2.96-.82,4.49-2.24Z"/>
    <path class="st1" d="M229.68,449.52c0-4.42,3.66-6.72,12.13-7.63-.07-2.22-.96-4.07-3.75-4.07-2.05,0-3.98.92-5.8,2.03l-1.78-3.23c2.27-1.43,5.19-2.71,8.47-2.71,5.16,0,7.7,3.18,7.7,8.92v12.22h-3.96l-.37-2.29h-.13c-1.85,1.58-3.97,2.79-6.4,2.79-3.61,0-6.1-2.45-6.1-6.05ZM241.81,449.54v-4.64c-5.6.71-7.46,2.17-7.46,4.25,0,1.82,1.24,2.62,2.97,2.62s2.96-.82,4.49-2.24Z"/>
    <path class="st1" d="M252.04,451.54l2.84-3.34c1.97,1.87,4.6,3.13,7.16,3.13,3.09,0,4.79-1.4,4.79-3.54,0-2.26-1.77-2.98-4.27-4.04l-3.76-1.63c-2.71-1.13-5.55-3.27-5.55-7.28,0-4.38,3.86-7.75,9.22-7.75,3.21,0,6.32,1.33,8.47,3.5l-2.5,3.09c-1.75-1.49-3.61-2.36-5.96-2.36-2.6,0-4.3,1.22-4.3,3.23,0,2.16,2.09,2.96,4.37,3.89l3.71,1.55c3.27,1.36,5.55,3.43,5.55,7.41,0,4.45-3.7,8.17-9.86,8.17-3.71,0-7.29-1.46-9.9-4.02Z"/>
    <path class="st1" d="M296.76,427.59h7.33c8.42,0,13.39,4.54,13.39,13.63s-4.97,13.85-13.14,13.85h-7.58v-27.47ZM303.77,451.12c5.53,0,8.7-3.14,8.7-9.9s-3.18-9.68-8.7-9.68h-2.13v19.58h2.13Z"/>
    <path class="st1" d="M322.28,444.76c0-6.71,4.65-10.84,9.51-10.84,5.58,0,8.52,4.03,8.52,9.8,0,.92-.1,1.85-.21,2.35h-13.1c.4,3.66,2.76,5.75,6.08,5.75,1.76,0,3.28-.55,4.79-1.5l1.65,3.01c-1.97,1.33-4.45,2.23-7.07,2.23-5.7,0-10.17-4-10.17-10.8ZM336.13,442.78c0-3.18-1.41-5.11-4.23-5.11-2.4,0-4.52,1.8-4.94,5.11h9.17Z"/>
    <path class="st1" d="M343.42,434.43h4.91l3.28,10.7c.57,2.03,1.18,4.15,1.75,6.22h.17c.57-2.07,1.18-4.18,1.75-6.22l3.28-10.7h4.67l-7.01,20.63h-5.6l-7.19-20.63Z"/>
    <path class="st1" d="M366.21,444.76c0-6.71,4.65-10.84,9.51-10.84,5.58,0,8.52,4.03,8.52,9.8,0,.92-.1,1.85-.21,2.35h-13.1c.4,3.66,2.76,5.75,6.08,5.75,1.76,0,3.28-.55,4.79-1.5l1.65,3.01c-1.97,1.33-4.45,2.23-7.07,2.23-5.7,0-10.17-4-10.17-10.8ZM380.06,442.78c0-3.18-1.41-5.11-4.23-5.11-2.4,0-4.52,1.8-4.94,5.11h9.17Z"/>
    <path class="st1" d="M389.92,449.75v-24.36h4.84v24.62c0,1.19.54,1.61,1.04,1.61.22,0,.39,0,.76-.08l.61,3.61c-.59.24-1.39.42-2.55.42-3.43,0-4.69-2.22-4.69-5.81Z"/>
    <path class="st1" d="M400.99,444.76c0-6.87,4.67-10.84,9.81-10.84s9.81,3.96,9.81,10.84-4.67,10.8-9.81,10.8-9.81-3.96-9.81-10.8ZM415.64,444.76c0-4.13-1.81-6.89-4.84-6.89s-4.84,2.76-4.84,6.89,1.81,6.86,4.84,6.86,4.84-2.72,4.84-6.86Z"/>
    <path class="st1" d="M426.46,434.43h3.96l.37,2.2h.13c1.74-1.5,3.95-2.71,6.22-2.71,5.16,0,8.12,4.13,8.12,10.5,0,7.06-4.22,11.14-8.81,11.14-1.83,0-3.63-.82-5.31-2.27l.15,3.43v6.5h-4.84v-28.8ZM440.29,444.48c0-4.12-1.34-6.55-4.49-6.55-1.5,0-2.91.76-4.5,2.32v9.61c1.48,1.26,2.94,1.71,4.13,1.71,2.76,0,4.86-2.42,4.86-7.09Z"/>
    <path class="st1" d="M451.2,434.43h3.96l.37,2.81h.13c1.75-1.82,3.75-3.32,6.33-3.32,3.03,0,4.75,1.38,5.7,3.7,1.97-2.1,4.02-3.7,6.64-3.7,4.35,0,6.37,2.99,6.37,8.2v12.94h-4.84v-12.32c0-3.39-1.01-4.67-3.18-4.67-1.31,0-2.72.84-4.32,2.57v14.42h-4.84v-12.32c0-3.39-1.01-4.67-3.18-4.67-1.28,0-2.72.84-4.32,2.57v14.42h-4.84v-20.63Z"/>
    <path class="st1" d="M486.29,444.76c0-6.71,4.65-10.84,9.51-10.84,5.58,0,8.52,4.03,8.52,9.8,0,.92-.1,1.85-.21,2.35h-13.1c.4,3.66,2.76,5.75,6.08,5.75,1.76,0,3.28-.55,4.79-1.5l1.65,3.01c-1.97,1.33-4.45,2.23-7.07,2.23-5.7,0-10.17-4-10.17-10.8ZM500.14,442.78c0-3.18-1.41-5.11-4.23-5.11-2.4,0-4.52,1.8-4.94,5.11h9.17Z"/>
    <path class="st1" d="M510,434.43h3.96l.37,2.79h.13c1.85-1.8,3.95-3.29,6.77-3.29,4.42,0,6.35,2.99,6.35,8.2v12.94h-4.84v-12.32c0-3.39-.97-4.67-3.21-4.67-1.81,0-3.01.89-4.71,2.57v14.42h-4.84v-20.63Z"/>
    <path class="st1" d="M535.29,448.11v-9.83h-2.94v-3.63l3.19-.22.57-5.63h4.02v5.63h5.26v3.85h-5.26v9.82c0,2.43.94,3.62,2.92,3.62.71,0,1.55-.24,2.15-.47l.82,3.56c-1.12.37-2.56.76-4.22.76-4.76,0-6.52-3.01-6.52-7.46Z"/>
  </g>
</svg>